<svg width="18" height="18" viewBox="0 0 18 18" fill="none" xmlns="http://www.w3.org/2000/svg">
<path d="M15.9575 17.9774H2.0426C0.929415 17.9774 0.0227051 17.0706 0.0227051 15.9575V2.0426C0.0227051 0.929415 0.929415 0.0227051 2.0426 0.0227051H15.9575C17.0706 0.0227051 17.9774 0.929415 17.9774 2.0426V15.9575C17.9774 17.0706 17.0706 17.9774 15.9575 17.9774ZM2.0426 1.3693C1.67094 1.3693 1.3693 1.67184 1.3693 2.0426V15.9575C1.3693 16.3282 1.67094 16.6308 2.0426 16.6308H15.9575C16.3291 16.6308 16.6308 16.3282 16.6308 15.9575V2.0426C16.6308 1.67184 16.3291 1.3693 15.9575 1.3693H2.0426Z" fill="white"/>
<path d="M13.4888 5.98368H4.51143C4.13977 5.98368 3.83813 5.68115 3.83813 5.31038C3.83813 4.93962 4.13977 4.63708 4.51143 4.63708H13.4888C13.8604 4.63708 14.1621 4.93783 14.1621 5.31038C14.1621 5.68294 13.8604 5.98368 13.4888 5.98368ZM13.4888 9.67336H4.51143C4.13977 9.67336 3.83813 9.37173 3.83813 9.00007C3.83813 8.6284 4.13977 8.32677 4.51143 8.32677H13.4888C13.8604 8.32677 14.1621 8.6284 14.1621 9.00007C14.1621 9.37173 13.8604 9.67336 13.4888 9.67336ZM9.0001 13.363H4.51143C4.13977 13.363 3.83813 13.0623 3.83813 12.6897C3.83813 12.3172 4.13977 12.0164 4.51143 12.0164H9.0001C9.37176 12.0164 9.6734 12.319 9.6734 12.6897C9.6734 13.0605 9.37176 13.363 9.0001 13.363Z" fill="white"/>
</svg>
